<svg width="182" height="79" viewBox="0 0 182 79" fill="none" xmlns="http://www.w3.org/2000/svg">
<path d="M10.8966 5.44828C10.8966 8.45728 8.45728 10.8966 5.44828 10.8966C2.43928 10.8966 0 8.45728 0 5.44828C0 2.43928 2.43928 0 5.44828 0C8.45728 0 10.8966 2.43928 10.8966 5.44828Z" fill="#F2F2F2"/>
<path d="M44.9483 5.44828C44.9483 8.45728 42.509 10.8966 39.5 10.8966C36.491 10.8966 34.0517 8.45728 34.0517 5.44828C34.0517 2.43928 36.491 0 39.5 0C42.509 0 44.9483 2.43928 44.9483 5.44828Z" fill="#F2F2F2"/>
<path d="M79 5.44828C79 8.45728 76.5607 10.8966 73.5517 10.8966C70.5427 10.8966 68.1034 8.45728 68.1034 5.44828C68.1034 2.43928 70.5427 0 73.5517 0C76.5607 0 79 2.43928 79 5.44828Z" fill="#F2F2F2"/>
<path d="M147.103 5.44828C147.103 8.45728 144.664 10.8966 141.655 10.8966C138.646 10.8966 136.207 8.45728 136.207 5.44828C136.207 2.43928 138.646 0 141.655 0C144.664 0 147.103 2.43928 147.103 5.44828Z" fill="#F2F2F2"/>
<path d="M181.155 5.44828C181.155 8.45728 178.716 10.8966 175.707 10.8966C172.698 10.8966 170.259 8.45728 170.259 5.44828C170.259 2.43928 172.698 0 175.707 0C178.716 0 181.155 2.43928 181.155 5.44828Z" fill="#F2F2F2"/>
<path d="M113.052 5.44828C113.052 8.45728 110.612 10.8966 107.603 10.8966C104.594 10.8966 102.155 8.45728 102.155 5.44828C102.155 2.43928 104.594 0 107.603 0C110.612 0 113.052 2.43928 113.052 5.44828Z" fill="#F2F2F2"/>
<path d="M10.8966 39.5C10.8966 42.509 8.45728 44.9483 5.44828 44.9483C2.43928 44.9483 0 42.509 0 39.5C0 36.491 2.43928 34.0517 5.44828 34.0517C8.45728 34.0517 10.8966 36.491 10.8966 39.5Z" fill="#F2F2F2"/>
<path d="M44.9483 39.5C44.9483 42.509 42.509 44.9483 39.5 44.9483C36.491 44.9483 34.0517 42.509 34.0517 39.5C34.0517 36.491 36.491 34.0517 39.5 34.0517C42.509 34.0517 44.9483 36.491 44.9483 39.5Z" fill="#F2F2F2"/>
<path d="M79 39.5C79 42.509 76.5607 44.9483 73.5517 44.9483C70.5427 44.9483 68.1034 42.509 68.1034 39.5C68.1034 36.491 70.5427 34.0517 73.5517 34.0517C76.5607 34.0517 79 36.491 79 39.5Z" fill="#F2F2F2"/>
<path d="M147.103 39.5C147.103 42.509 144.664 44.9483 141.655 44.9483C138.646 44.9483 136.207 42.509 136.207 39.5C136.207 36.491 138.646 34.0517 141.655 34.0517C144.664 34.0517 147.103 36.491 147.103 39.5Z" fill="#F2F2F2"/>
<path d="M181.155 39.5C181.155 42.509 178.716 44.9483 175.707 44.9483C172.698 44.9483 170.259 42.509 170.259 39.5C170.259 36.491 172.698 34.0517 175.707 34.0517C178.716 34.0517 181.155 36.491 181.155 39.5Z" fill="#F2F2F2"/>
<path d="M113.052 39.5C113.052 42.509 110.612 44.9483 107.603 44.9483C104.594 44.9483 102.155 42.509 102.155 39.5C102.155 36.491 104.594 34.0517 107.603 34.0517C110.612 34.0517 113.052 36.491 113.052 39.5Z" fill="#F2F2F2"/>
<path d="M10.8966 73.5517C10.8966 76.5607 8.45728 79 5.44828 79C2.43928 79 0 76.5607 0 73.5517C0 70.5427 2.43928 68.1034 5.44828 68.1034C8.45728 68.1034 10.8966 70.5427 10.8966 73.5517Z" fill="#F2F2F2"/>
<path d="M44.9483 73.5517C44.9483 76.5607 42.509 79 39.5 79C36.491 79 34.0517 76.5607 34.0517 73.5517C34.0517 70.5427 36.491 68.1034 39.5 68.1034C42.509 68.1034 44.9483 70.5427 44.9483 73.5517Z" fill="#F2F2F2"/>
<path d="M79 73.5517C79 76.5607 76.5607 79 73.5517 79C70.5427 79 68.1034 76.5607 68.1034 73.5517C68.1034 70.5427 70.5427 68.1034 73.5517 68.1034C76.5607 68.1034 79 70.5427 79 73.5517Z" fill="#F2F2F2"/>
<path d="M147.103 73.5517C147.103 76.5607 144.664 79 141.655 79C138.646 79 136.207 76.5607 136.207 73.5517C136.207 70.5427 138.646 68.1034 141.655 68.1034C144.664 68.1034 147.103 70.5427 147.103 73.5517Z" fill="#F2F2F2"/>
<path d="M181.155 73.5517C181.155 76.5607 178.716 79 175.707 79C172.698 79 170.259 76.5607 170.259 73.5517C170.259 70.5427 172.698 68.1034 175.707 68.1034C178.716 68.1034 181.155 70.5427 181.155 73.5517Z" fill="#F2F2F2"/>
<path d="M113.052 73.5517C113.052 76.5607 110.612 79 107.603 79C104.594 79 102.155 76.5607 102.155 73.5517C102.155 70.5427 104.594 68.1034 107.603 68.1034C110.612 68.1034 113.052 70.5427 113.052 73.5517Z" fill="#F2F2F2"/>
</svg>
