<svg width="230" height="35" viewBox="0 0 230 35" fill="none" xmlns="http://www.w3.org/2000/svg">
<mask id="mask0_1_258" style="mask-type:alpha" maskUnits="userSpaceOnUse" x="0" y="0" width="230" height="35">
<path d="M0 26.988H11.5305C17.5922 26.988 20.8208 23.8253 20.8208 19.5294C20.8208 15.5365 17.9612 13.125 14.8908 12.98V12.7165C17.6977 12.084 19.7666 10.0941 19.7666 6.9183C19.7666 2.87274 16.762 0 10.8057 0H0V26.988ZM5.70595 22.323V15.1544H10.4895C13.2304 15.1544 14.9303 16.7357 14.9303 18.9627C14.9303 20.9921 13.5467 22.323 10.3577 22.323H5.70595ZM5.70595 11.2933V4.6122H10.0414C12.5715 4.6122 14.0079 5.91679 14.0079 7.86709C14.0079 10.0019 12.2684 11.2933 9.93599 11.2933H5.70595Z" fill="#333333"/>
<path d="M37.4082 18.3697C37.4214 21.0843 35.5633 22.5075 33.5472 22.5075C31.4255 22.5075 30.0551 21.0184 30.0419 18.6333V6.74699H24.4282V19.6348C24.4414 24.3656 27.2087 27.2515 31.2806 27.2515C34.3246 27.2515 36.5121 25.6834 37.4214 23.3114H37.6322V26.988H43.0219V6.74699H37.4082V18.3697Z" fill="#333333"/>
<path d="M47.5122 26.988H53.1259V15.5365C53.1259 13.0459 54.9445 11.3328 57.4219 11.3328C58.1994 11.3328 59.2668 11.4646 59.7939 11.6359V6.65474C59.2931 6.53614 58.5947 6.45708 58.028 6.45708C55.7615 6.45708 53.9034 7.77485 53.1655 10.2786H52.9546V6.74699H47.5122V26.988Z" fill="#333333"/>
<path d="M70.873 35C76.658 35 80.7695 32.3645 80.7695 27.1856V6.74699H75.1953V10.1468H74.9845C74.2333 8.49962 72.5861 6.48343 69.1995 6.48343C64.7586 6.48343 61.0029 9.93599 61.0029 16.8279C61.0029 23.5617 64.6531 26.698 69.2126 26.698C72.4412 26.698 74.2465 25.0772 74.9845 23.4036H75.2217V27.1066C75.2217 29.887 73.4427 30.9676 71.0048 30.9676C68.5274 30.9676 67.2755 29.887 66.8143 28.6615L61.6223 29.3599C62.2943 32.5489 65.4175 35 70.873 35ZM70.9916 22.4812C68.2375 22.4812 66.7352 20.2937 66.7352 16.8016C66.7352 13.3622 68.2111 10.9507 70.9916 10.9507C73.7194 10.9507 75.248 13.2568 75.248 16.8016C75.248 20.3727 73.6931 22.4812 70.9916 22.4812Z" fill="#333333"/>
<path d="M98.2168 18.3697C98.23 21.0843 96.3719 22.5075 94.3557 22.5075C92.2341 22.5075 90.8636 21.0184 90.8504 18.6333V6.74699H85.2367V19.6348C85.2499 24.3656 88.0172 27.2515 92.0891 27.2515C95.1332 27.2515 97.3207 25.6834 98.2299 23.3114H98.4408V26.988H103.83V6.74699H98.2168V18.3697Z" fill="#333333"/>
<path d="M117.545 27.3833C122.553 27.3833 125.926 24.9454 126.717 21.1898L121.525 20.8471C120.958 22.3889 119.509 23.1928 117.637 23.1928C114.831 23.1928 113.052 21.3347 113.052 18.317V18.3038H126.835V16.762C126.835 9.88328 122.671 6.48343 117.321 6.48343C111.365 6.48343 107.504 10.7135 107.504 16.9597C107.504 23.3773 111.312 27.3833 117.545 27.3833ZM113.052 14.8249C113.17 12.5188 114.923 10.6739 117.413 10.6739C119.851 10.6739 121.538 12.4134 121.551 14.8249H113.052Z" fill="#333333"/>
<path d="M130.499 26.988H136.113V15.5365C136.113 13.0459 137.931 11.3328 140.409 11.3328C141.186 11.3328 142.253 11.4646 142.78 11.6359V6.65474C142.28 6.53614 141.581 6.45708 141.015 6.45708C138.748 6.45708 136.89 7.77485 136.152 10.2786H135.941V6.74699H130.499V26.988Z" fill="#333333"/>
<path d="M153.532 26.988H157.184V22.0795L158.981 19.8867L163.712 26.988H168.081L161.595 17.4494L168.005 9.71566H163.628L157.412 17.3313H157.184V9.71566H153.532V26.988Z" fill="#333333"/>
<path d="M174.792 27.241C177.997 27.241 180.156 25.6807 180.662 23.2771L177.339 23.0578C176.976 24.0446 176.048 24.559 174.851 24.559C173.054 24.559 171.916 23.3699 171.916 21.4386V21.4301H180.738V20.4434C180.738 16.041 178.073 13.8651 174.648 13.8651C170.836 13.8651 168.365 16.5723 168.365 20.5699C168.365 24.6771 170.803 27.241 174.792 27.241ZM171.916 19.2036C171.992 17.7277 173.113 16.547 174.707 16.547C176.268 16.547 177.347 17.6602 177.356 19.2036H171.916Z" fill="#333333"/>
<path d="M186.675 19.4988C186.683 17.8289 187.679 16.8506 189.129 16.8506C190.571 16.8506 191.44 17.7952 191.432 19.3807V26.988H195.024V18.7398C195.024 15.7205 193.253 13.8651 190.554 13.8651C188.632 13.8651 187.24 14.8096 186.658 16.3193H186.506V14.0337H183.082V26.988H186.675V19.4988Z" fill="#333333"/>
<path d="M197.788 26.988H208.676V24.1205H202.503V24.0277L208.457 16.3699V14.0337H198.008V16.9012H204.131V16.994L197.788 24.8458V26.988Z" fill="#333333"/>
<path d="M211.424 26.988H215.016V14.0337H211.424V26.988ZM213.229 12.3639C214.3 12.3639 215.177 11.5458 215.177 10.5422C215.177 9.54699 214.3 8.72892 213.229 8.72892C212.166 8.72892 211.289 9.54699 211.289 10.5422C211.289 11.5458 212.166 12.3639 213.229 12.3639Z" fill="#333333"/>
<path d="M223.798 27.241C227.003 27.241 229.162 25.6807 229.668 23.2771L226.345 23.0578C225.982 24.0446 225.055 24.559 223.857 24.559C222.061 24.559 220.922 23.3699 220.922 21.4386V21.4301H229.744V20.4434C229.744 16.041 227.079 13.8651 223.655 13.8651C219.843 13.8651 217.372 16.5723 217.372 20.5699C217.372 24.6771 219.809 27.241 223.798 27.241ZM220.922 19.2036C220.998 17.7277 222.12 16.547 223.714 16.547C225.274 16.547 226.354 17.6602 226.362 19.2036H220.922Z" fill="#333333"/>
</mask>
<g mask="url(#mask0_1_258)">
<rect x="-8.90594" y="-13.3591" width="243.431" height="56.4048" fill="url(#paint0_linear_1_258)"/>
</g>
<defs>
<linearGradient id="paint0_linear_1_258" x1="143.59" y1="43.396" x2="148.695" y2="43.396" gradientUnits="userSpaceOnUse">
<stop stop-color="#333333"/>
<stop offset="1" stop-color="#EB5757"/>
</linearGradient>
</defs>
</svg>
